<?xml version="1.0" standalone="no"?><!DOCTYPE svg PUBLIC "-//W3C//DTD SVG 20010904//EN" "http://www.w3.org/TR/2001/REC-SVG-20010904/DTD/svg10.dtd"><svg xmlns="http://www.w3.org/2000/svg" version="1.0" width="928.000000pt" height="908.000000pt" viewBox="0 0 928.000000 908.000000" preserveAspectRatio="xMidYMid meet">

<g transform="translate(0.000000,908.000000) scale(0.100000,-0.100000)" fill="#192231" stroke="none">
<path d="M4315 9069 c-1397 -93 -2678 -809 -3495 -1955 -436 -611 -709 -1337 -797 -2116 -24 -213 -24 -703 0 -915 103 -915 446 -1719 1036 -2426 101 -123 351 -377 481 -492 1113 -978 2628 -1370 4089 -1059 1097 234 2084 865 2753 1759 405 542 685 1174 813 1834 61 316 70 424 70 841 0 423 -10 531 -75 862 -199 1012 -745 1923 -1555 2598 -917 765 -2112 1150 -3320 1069z m545 -49 c1357 -70 2576 -696 3412 -1750 482 -609 800 -1355 908 -2129 45 -324 52 -786 15 -1086 -107 -889 -455 -1693 -1027 -2373 -103 -122 -334 -357 -458 -467 -379 -332 -790 -592 -1237 -784 -593 -253 -1177 -373 -1828 -373 -270 0 -408 9 -658 43 -1259 171 -2414 878 -3140 1922 -694 997 -946 2225 -701 3412 202 976 745 1873 1527 2523 784 651 1763 1025 2792 1065 163 7 210 6 395 -3z"/>
<path d="M4661 8671 c-24 -24 -32 -83 -34 -256 l-2 -130 60 -140 60 -140 85 -6 c47 -4 86 -6 88 -4 1 1 -25 66 -58 145 -33 78 -60 143 -60 144 0 1 39 0 88 -2 84 -4 88 -3 112 22 20 22 25 40 28 96 3 48 8 70 17 70 17 0 36 -24 38 -49 1 -18 39 -41 68 -41 5 0 9 33 9 74 0 83 -2 86 -76 86 l-44 0 0 44 c0 67 -23 88 -106 97 -38 5 -111 8 -161 8 -79 1 -96 -2 -112 -18z m215 -76 c3 -8 2 -63 -3 -122 -9 -117 -13 -123 -69 -109 l-25 7 6 107 c4 59 8 113 10 120 6 17 74 16 81 -3z"/>
<path d="M4225 8673 c-16 -2 -49 -6 -72 -9 l-42 -5 6 -68 6 -69 -46 -20 c-71 -31 -71 -34 -47 -275 29 -295 17 -265 102 -256 38 5 73 10 76 13 3 3 -5 106 -17 228 -22 212 -22 223 -5 235 23 16 49 17 61 1 6 -7 20 -112 32 -233 13 -121 24 -222 26 -223 2 -2 50 1 106 7 l103 11 26 -25 c31 -30 84 -35 76 -7 -2 9 -10 50 -16 90 -10 60 -15 72 -31 72 -12 0 -26 -14 -38 -39 -19 -36 -57 -59 -72 -43 -4 4 -15 88 -24 187 -25 261 -28 270 -115 284 l-35 6 -9 73 c-5 39 -12 71 -15 71 -3 -1 -19 -4 -36 -6z"/>
<path d="M5401 8534 c-13 -52 -22 -97 -20 -99 2 -2 13 -5 24 -6 14 -3 36 12 67 45 46 47 49 48 90 42 23 -4 44 -9 46 -11 2 -2 -13 -40 -32 -86 -20 -45 -36 -90 -36 -100 0 -21 36 -49 65 -49 46 -1 47 -13 9 -101 -19 -46 -53 -125 -74 -176 l-38 -91 70 -16 c39 -9 76 -16 83 -16 15 0 168 382 163 408 -2 10 -20 22 -43 30 -22 7 -45 14 -52 17 -8 3 0 31 27 90 22 47 40 89 40 93 0 29 -36 44 -180 77 -85 20 -162 38 -171 40 -12 4 -20 -15 -38 -91z"/>
<path d="M3315 8530 c-33 -10 -61 -19 -62 -19 -6 -3 57 -214 68 -227 8 -9 23 -14 39 -12 l27 4 -5 -68 c-5 -70 12 -118 42 -118 9 0 11 -14 8 -55 -4 -45 18 -178 34 -207 3 -5 141 28 151 36 1 1 -10 48 -24 105 -22 87 -24 109 -15 135 18 48 15 65 -12 72 -26 6 -36 29 -36 86 0 49 40 98 80 98 33 0 33 1 111 -297 49 -184 33 -169 145 -134 l51 16 -57 213 c-32 118 -66 225 -77 240 -27 37 -60 52 -114 52 -55 0 -98 -14 -160 -52 -25 -15 -49 -28 -51 -28 -3 0 -16 41 -29 90 -26 101 -21 97 -114 70z"/>
<path d="M2741 8319 c-36 -16 -67 -31 -69 -33 -4 -5 56 -147 68 -159 4 -5 29 1 55 12 27 12 50 20 52 18 2 -3 -10 -38 -27 -80 -16 -41 -30 -92 -30 -112 0 -23 26 -94 72 -198 39 -89 72 -163 74 -165 5 -8 144 63 141 72 -3 6 -30 68 -61 137 -60 135 -72 203 -40 229 23 20 33 4 108 -165 37 -82 70 -156 75 -163 6 -10 23 -5 74 19 37 17 67 35 67 40 0 22 -155 356 -173 372 -24 21 -56 22 -104 2 -20 -8 -38 -14 -40 -12 -1 2 8 37 22 77 22 65 23 76 11 89 -13 13 -23 11 -83 -15 -37 -16 -70 -30 -73 -32 -4 -1 -15 18 -24 43 -10 24 -21 47 -24 49 -4 2 -36 -9 -71 -25z"/>
<path d="M6646 8161 c-29 -32 -186 -284 -187 -300 -5 -60 3 -70 116 -143 93 -60 142 -73 177 -45 8 6 53 71 98 142 45 72 84 131 85 133 5 5 35 -11 35 -19 0 -5 -31 -57 -69 -116 -37 -60 -71 -118 -75 -130 -11 -33 9 -60 75 -103 l59 -38 -100 -92 c-55 -51 -100 -96 -100 -100 0 -4 30 -27 66 -50 l65 -43 115 114 c91 90 132 142 199 246 86 134 99 171 73 206 -7 9 -134 93 -282 186 -283 180 -313 193 -350 152z m143 -115 c9 -11 -4 -39 -64 -132 -80 -127 -97 -146 -116 -127 -8 8 11 45 73 142 45 72 86 131 89 131 4 0 12 -6 18 -14z m347 -220 c8 -20 -117 -216 -138 -216 -9 0 -19 4 -22 8 -8 13 126 221 142 222 7 0 15 -6 18 -14z"/>
<path d="M4370 7779 c-701 -58 -1342 -312 -1885 -745 -141 -113 -386 -358 -499 -499 -367 -458 -595 -982 -683 -1570 -26 -172 -26 -678 0 -850 110 -730 441 -1374 968 -1879 535 -513 1207 -827 1974 -922 293 -37 730 -21 1035 37 833 159 1572 614 2071 1276 137 181 215 308 319 518 165 333 255 629 307 1005 24 176 24 606 0 780 -53 376 -153 704 -315 1026 -320 638 -840 1150 -1497 1474 -360 178 -692 278 -1093 331 -178 23 -532 32 -702 18z m755 -78 c457 -71 869 -217 1253 -445 231 -138 428 -292 633 -496 694 -693 1024 -1624 913 -2580 -121 -1045 -780 -1973 -1751 -2468 -321 -164 -668 -274 -1053 -334 -129 -20 -181 -22 -480 -22 -293 0 -353 3 -477 22 -385 58 -711 160 -1043 326 -339 169 -615 371 -886 647 -490 502 -783 1098 -881 1799 -13 95 -17 191 -17 400 0 294 14 427 69 670 252 1115 1119 2029 2248 2370 150 46 426 104 567 119 52 6 109 13 125 15 17 2 167 3 335 1 252 -2 329 -6 445 -24z"/>
<path d="M3836 6647 c-62 -35 -81 -68 -81 -140 0 -50 5 -68 24 -94 26 -34 31 -84 10 -109 -6 -8 -30 -27 -53 -43 -145 -99 -1953 -1424 -1961 -1437 -14 -22 38 -64 153 -122 l93 -47 -1 -456 c0 -528 -11 -478 116 -546 225 -118 512 -173 912 -173 l195 0 -6 -348 c-6 -332 -6 -349 12 -369 35 -38 408 -123 711 -162 640 -84 1265 -60 1900 71 278 57 645 162 681 194 18 16 19 36 19 525 l0 508 55 12 c61 13 80 29 71 56 -4 10 -126 104 -273 208 l-267 190 109 7 c231 15 467 41 639 69 211 35 394 75 413 90 10 9 13 79 13 354 l0 343 88 29 c153 49 185 19 -489 464 -320 211 -590 387 -600 391 -11 4 -24 18 -30 32 -10 20 -8 31 10 59 42 69 17 168 -52 204 -44 23 -122 20 -156 -4 -39 -29 -71 -82 -71 -117 0 -17 12 -54 26 -83 26 -50 26 -53 10 -78 -9 -14 -21 -25 -26 -25 -6 0 -199 -126 -431 -280 -254 -170 -425 -278 -432 -273 -7 4 -239 164 -517 357 -277 192 -524 361 -547 374 -24 13 -48 32 -53 42 -15 27 -12 73 5 96 46 60 38 148 -17 201 -60 58 -135 69 -202 30z m119 -61 c57 -24 71 -79 35 -138 -24 -39 -27 -116 -6 -156 18 -34 54 -68 83 -79 26 -9 1932 -1335 1932 -1344 1 -6 -228 -79 -327 -104 l-62 -16 -258 184 c-141 101 -277 197 -302 212 -97 62 -111 94 -68 163 47 76 17 182 -63 222 -152 78 -312 -82 -224 -225 13 -22 25 -54 25 -71 0 -31 -32 -84 -51 -84 -6 0 -61 -38 -122 -84 -62 -46 -247 -183 -412 -306 l-300 -222 -395 5 c-415 6 -534 15 -816 62 -242 41 -440 96 -686 191 -27 10 -48 21 -47 24 0 5 1844 1349 1909 1392 79 52 100 159 46 236 -14 21 -26 47 -26 59 0 36 53 89 93 92 4 1 23 -5 42 -13z m2265 -266 c11 -11 20 -25 20 -30 0 -6 -9 -28 -20 -50 -39 -76 -16 -159 55 -199 26 -14 900 -587 1043 -683 l54 -36 -59 -17 c-165 -48 -460 -101 -703 -125 -185 -18 -538 -30 -717 -23 l-174 6 -230 159 -230 160 328 221 c180 121 372 249 426 285 118 78 140 106 134 179 -2 30 -11 61 -20 71 -55 61 35 140 93 82z m-1319 -869 c32 -33 38 -75 14 -107 -26 -34 -37 -90 -25 -133 14 -53 42 -85 103 -119 58 -32 1570 -1117 1575 -1130 3 -9 -356 -89 -573 -128 -537 -95 -949 -134 -1429 -134 -393 0 -647 22 -955 81 -204 40 -442 109 -441 128 1 7 1513 1164 1556 1190 69 42 93 157 45 222 -43 58 -39 109 12 140 46 27 83 24 118 -10z m1312 -853 c224 -62 407 -116 407 -119 0 -9 -134 -18 -377 -25 l-212 -7 -160 114 c-88 63 -160 117 -161 121 0 5 57 24 85 27 6 1 193 -49 418 -111z m-3939 -152 l146 -69 0 -379 0 -379 -22 7 c-81 25 -191 69 -235 94 l-53 30 0 386 c0 221 4 384 9 382 5 -1 75 -34 155 -72z m793 -373 c68 -21 123 -41 123 -44 0 -4 -31 -30 -70 -60 -41 -31 -70 -60 -70 -71 0 -23 47 -52 128 -79 l63 -21 -3 -121 -3 -122 -150 0 -150 0 -3 278 c-1 152 1 277 5 277 5 1 63 -16 130 -37z m408 -401 c61 -38 162 -99 226 -135 110 -63 495 -258 545 -277 l24 -10 0 -301 0 -301 -27 6 c-16 2 -64 8 -108 11 -203 16 -621 86 -765 128 l-45 13 -3 483 -2 484 22 -16 c13 -9 73 -47 133 -85z m1745 -742 c190 -48 458 -103 605 -125 133 -19 159 -24 152 -31 -7 -8 -278 -61 -423 -83 -166 -26 -384 -48 -551 -57 l-133 -7 0 200 0 200 98 -29 c53 -16 167 -46 252 -68z"/>
<path d="M1756 7624 c-54 -38 -80 -42 -131 -17 -34 16 -35 16 -60 -7 -14 -13 -25 -27 -25 -32 0 -8 99 -121 111 -126 4 -2 25 13 47 33 l40 36 36 -43 c20 -23 36 -45 36 -49 0 -4 -27 -31 -60 -61 l-59 -53 62 -69 63 -69 18 27 c16 25 16 31 3 64 -10 26 -12 45 -5 61 21 58 24 56 170 -110 77 -87 143 -159 148 -159 10 0 110 89 110 98 0 4 -63 79 -140 167 -136 155 -139 160 -118 172 33 18 69 15 98 -6 22 -17 27 -18 52 -5 15 8 28 18 28 22 -1 4 -27 36 -59 72 l-58 64 -59 -52 c-32 -29 -61 -52 -65 -52 -4 0 -34 29 -65 65 -32 36 -60 65 -63 64 -3 -1 -28 -16 -55 -35z"/>
<path d="M7422 7551 c-45 -49 -82 -96 -82 -104 0 -8 7 -20 15 -27 8 -7 15 -17 15 -23 0 -6 -56 -68 -125 -137 -118 -120 -125 -129 -125 -166 0 -38 7 -47 99 -137 146 -144 123 -151 391 124 118 122 217 226 219 231 4 11 -88 108 -102 108 -5 0 -103 -96 -217 -212 -182 -186 -210 -212 -227 -202 -10 6 -19 18 -21 26 -1 8 58 78 133 156 74 78 135 145 135 151 0 5 -9 19 -19 32 l-20 24 65 65 64 66 -58 57 -58 58 -82 -90z"/>
<path d="M1352 7213 c-44 -38 -182 -226 -182 -248 0 -42 11 -54 134 -152 136 -108 155 -118 244 -128 34 -4 62 -9 62 -12 0 -2 -23 -42 -52 -89 -28 -46 -49 -86 -47 -87 2 -2 37 -30 77 -62 l73 -58 21 21 c20 20 21 23 5 40 -18 20 -47 84 -47 105 0 7 29 59 65 115 36 57 65 112 65 123 0 25 -26 35 -120 49 -41 6 -75 12 -76 13 -2 1 20 31 47 66 53 69 61 104 32 139 -10 12 -65 57 -122 101 -110 86 -140 97 -179 64z m183 -273 c3 -5 -7 -23 -22 -39 l-28 -30 -92 72 c-51 40 -92 75 -93 79 0 3 12 20 26 37 l25 30 89 -70 c49 -39 92 -74 95 -79z"/>
<path d="M7708 6909 c-134 -100 -247 -185 -251 -189 -7 -6 78 -130 89 -130 1 0 112 82 245 181 l243 182 23 -29 c13 -16 23 -33 22 -39 0 -5 -95 -80 -210 -165 -116 -85 -225 -167 -242 -181 l-31 -26 47 -61 48 -61 117 86 c275 203 390 293 396 308 15 39 3 68 -70 167 -138 187 -115 189 -426 -43z"/>
<path d="M948 6543 c-9 -10 -28 -42 -42 -71 l-27 -53 -46 25 c-25 14 -47 26 -48 26 -4 0 -75 -127 -75 -133 0 -7 145 -87 157 -87 5 0 20 22 33 50 13 27 26 47 30 45 4 -2 12 -30 19 -62 20 -93 46 -138 99 -171 62 -38 279 -155 288 -154 8 0 79 131 73 136 -2 1 -63 35 -136 75 -132 72 -173 107 -173 149 0 12 4 24 10 27 5 3 85 -35 177 -84 91 -50 168 -90 169 -88 16 16 73 132 67 137 -28 26 -349 190 -372 190 -30 0 -59 -26 -84 -75 -11 -22 -17 -26 -21 -15 -3 8 -16 44 -30 80 -25 69 -42 82 -68 53z"/>
<path d="M8065 6429 c-126 -67 -240 -130 -252 -142 -45 -41 -34 -74 76 -229 l34 -47 -17 -36 c-16 -33 -16 -38 -2 -59 l15 -24 95 50 c53 27 96 55 96 62 0 23 -36 46 -72 46 -20 0 -46 9 -60 20 -29 22 -58 78 -51 96 5 15 415 234 437 234 25 0 49 -40 54 -88 4 -45 2 -50 -32 -80 -36 -32 -36 -32 -21 -62 l16 -31 99 52 99 53 -15 27 c-9 18 -23 29 -41 31 -24 3 -28 9 -39 64 -24 122 -75 184 -148 184 -33 0 -86 -24 -271 -121z"/>
<path d="M410 4738 c0 -2 -2 -49 -3 -106 l-2 -102 68 0 c60 0 67 2 67 20 0 17 -7 20 -38 20 -21 0 -41 3 -45 6 -13 14 7 34 34 34 24 0 29 4 29 24 0 21 -6 25 -32 28 -47 4 -40 22 10 26 37 3 42 6 42 28 0 23 -3 24 -65 24 -36 0 -65 -1 -65 -2z"/>
<path d="M603 4725 c-23 -16 -31 -58 -15 -81 4 -7 24 -20 46 -30 50 -24 47 -39 -7 -39 -35 0 -42 -3 -42 -20 0 -13 10 -22 32 -28 42 -13 79 -2 99 28 26 39 11 73 -41 95 -25 11 -45 24 -45 29 0 14 22 19 47 10 18 -7 25 -4 34 12 14 27 9 30 -43 36 -30 3 -50 -1 -65 -12z"/>
<path d="M760 4716 c0 -19 6 -25 27 -28 26 -3 26 -3 24 -80 l-2 -78 31 0 31 0 -2 78 c-2 77 -2 77 24 80 21 3 27 9 27 28 0 23 -2 24 -80 24 -78 0 -80 -1 -80 -24z"/>
<path d="M8285 4728 c-61 -33 -66 -38 -54 -59 8 -16 14 -18 22 -10 27 27 37 11 37 -59 0 -68 1 -70 25 -70 l25 0 0 105 c0 93 -2 105 -17 105 -10 0 -27 -6 -38 -12z"/>
<path d="M8411 4714 c-12 -15 -21 -37 -21 -49 0 -36 37 -75 71 -75 18 0 28 -4 24 -10 -3 -5 -21 -10 -40 -10 -35 0 -56 -27 -33 -42 27 -17 70 -8 99 21 25 26 29 37 29 88 0 49 -4 63 -23 81 -33 31 -80 29 -106 -4z m77 -43 c4 -28 -17 -45 -35 -29 -14 11 -17 40 -6 52 14 14 38 0 41 -23z"/>
<path d="M8600 4713 c-12 -16 -18 -33 -14 -42 8 -18 8 -33 -2 -77 -8 -43 35 -78 84 -70 51 8 65 24 58 65 -8 47 -8 52 0 83 15 62 -84 95 -126 41z m78 -30 c5 -17 -26 -29 -40 -15 -6 6 -7 15 -3 22 9 14 37 9 43 -7z m-3 -97 c0 -22 -14 -29 -34 -17 -19 12 -6 43 16 39 10 -2 18 -12 18 -22z"/>
<path d="M8790 4720 c-22 -22 -26 -50 -9 -67 8 -8 8 -17 0 -31 -34 -64 28 -121 99 -92 36 15 48 51 29 86 -10 19 -10 27 -1 36 33 33 -7 88 -63 88 -22 0 -43 -8 -55 -20z m78 -37 c5 -17 -26 -29 -40 -15 -6 6 -7 15 -3 22 9 14 37 9 43 -7z m0 -96 c4 -20 -25 -34 -40 -19 -15 15 -1 44 19 40 10 -2 19 -11 21 -21z"/>
<path d="M8122 3650 c-6 -14 -19 -49 -31 -78 -12 -30 -18 -59 -14 -65 3 -7 38 -47 76 -90 38 -43 68 -80 65 -82 -3 -3 -56 -11 -118 -17 l-114 -13 -32 -80 c-18 -44 -29 -81 -25 -83 4 -1 101 9 215 23 l206 25 135 -54 c74 -30 137 -51 139 -47 17 27 55 146 49 151 -5 4 -66 30 -138 59 l-130 52 -88 107 c-48 59 -109 132 -136 162 -49 55 -49 55 -59 30z"/>
<path d="M500 3649 c0 -8 8 -41 18 -74 l18 -60 69 -5 69 -5 17 -56 c33 -114 35 -104 -26 -141 -30 -18 -55 -39 -55 -47 0 -19 40 -151 46 -151 7 0 557 360 572 375 11 10 10 24 -5 81 l-20 69 -76 6 c-42 4 -200 10 -352 14 -229 6 -275 5 -275 -6z m415 -186 c-31 -19 -57 -34 -59 -32 -6 8 -24 67 -21 71 2 1 33 1 70 0 l67 -4 -57 -35z"/>
<path d="M1144 3192 l-129 -170 -136 -62 -137 -62 35 -78 35 -78 132 60 131 61 215 -16 c118 -8 216 -14 218 -12 1 1 -13 36 -32 77 -32 71 -36 75 -73 81 -21 4 -75 7 -120 7 -46 0 -83 2 -83 5 0 3 34 48 75 99 l75 94 -39 82 -38 81 -129 -169z"/>
<path d="M7858 3037 c-20 -34 -34 -65 -32 -69 2 -3 67 -43 144 -88 77 -45 140 -84 140 -86 0 -3 -89 -4 -197 -3 l-198 1 -38 -62 c-21 -35 -35 -66 -30 -71 4 -4 134 -82 288 -174 317 -188 277 -179 336 -76 l27 46 -144 85 c-79 47 -144 88 -144 93 0 4 89 6 197 5 l197 -3 39 64 c21 34 37 64 35 65 -24 18 -569 336 -575 336 -4 0 -24 -28 -45 -63z"/>
<path d="M1246 2629 c-181 -49 -331 -91 -333 -93 -3 -3 68 -121 80 -133 2 -1 32 6 67 17 50 15 66 17 72 7 4 -6 25 -39 46 -72 l39 -60 -44 -52 -44 -51 43 -71 c24 -39 46 -69 49 -68 10 3 449 529 449 537 0 13 -79 130 -87 129 -5 0 -156 -41 -337 -90z m148 -131 c-39 -48 -68 -78 -74 -78 -7 0 -43 60 -38 64 4 3 109 33 122 35 5 0 1 -9 -10 -21z"/>
<path d="M1720 2439 c-13 -11 -39 -34 -58 -50 l-33 -29 57 -66 c56 -64 57 -65 38 -83 -10 -10 -97 -85 -192 -166 -95 -82 -171 -152 -170 -156 6 -16 93 -118 102 -119 4 0 94 74 199 164 l191 165 39 -45 c22 -25 48 -55 57 -67 l17 -21 61 53 61 53 -35 42 c-20 22 -95 110 -167 194 -72 83 -133 152 -136 152 -3 -1 -17 -10 -31 -21z"/>
<path d="M7429 2405 c-24 -30 -44 -59 -44 -63 0 -10 369 -592 375 -591 3 0 27 27 54 60 l48 60 -36 55 c-21 31 -34 60 -30 67 19 31 98 117 108 117 6 0 34 -11 63 -24 l52 -25 57 65 c31 36 55 66 53 68 -6 6 -641 266 -649 266 -4 0 -27 -25 -51 -55z m266 -200 l56 -24 -22 -31 c-26 -35 -31 -36 -45 -12 -5 9 -20 34 -33 55 -12 20 -20 37 -17 37 3 0 31 -11 61 -25z"/>
<path d="M7187 2106 c-50 -18 -95 -51 -191 -140 l-79 -73 222 -244 c122 -134 225 -245 230 -247 4 -1 34 22 66 51 l59 54 -72 80 -72 80 45 46 c57 59 75 96 82 162 7 67 -19 126 -81 183 -64 59 -133 75 -209 48z m82 -161 c35 -17 57 -65 43 -92 -6 -10 -23 -30 -39 -46 l-29 -27 -48 55 c-53 62 -52 69 9 107 36 22 30 21 64 3z"/>
<path d="M6790 1794 c-30 -19 -61 -39 -69 -43 -12 -7 -11 -33 8 -171 12 -89 21 -164 19 -165 -2 -2 -66 36 -142 85 l-139 88 -68 -45 c-41 -27 -66 -50 -62 -57 69 -115 357 -550 363 -549 31 9 121 77 116 88 -2 7 -30 53 -62 102 -31 48 -68 106 -81 127 l-25 39 38 -23 c22 -13 59 -36 84 -51 l45 -28 35 21 c70 42 68 37 55 145 -7 54 -11 99 -10 101 1 1 42 -60 90 -135 49 -76 90 -140 92 -142 7 -9 132 82 126 93 -14 24 -347 541 -352 548 -3 4 -31 -9 -61 -28z"/>
<path d="M2285 1774 c-72 -37 -115 -105 -115 -181 0 -57 23 -108 79 -182 22 -30 41 -65 41 -77 0 -28 -25 -54 -51 -54 -28 0 -112 82 -133 129 l-18 39 -46 -26 c-26 -13 -57 -31 -70 -39 l-22 -14 26 -51 c33 -66 107 -139 175 -174 102 -51 200 -31 266 55 73 95 67 167 -23 291 -54 75 -64 106 -42 128 26 26 61 13 115 -43 29 -30 53 -61 53 -70 0 -8 3 -15 6 -15 15 0 116 64 121 76 14 38 -101 168 -180 205 -52 23 -141 25 -182 3z"/>
<path d="M2614 1254 c-79 -163 -144 -299 -144 -303 0 -8 125 -71 141 -71 6 0 35 53 66 118 30 64 56 118 58 120 5 5 155 -72 155 -80 0 -5 -25 -58 -55 -118 -30 -60 -55 -114 -55 -120 0 -10 139 -84 146 -78 9 9 296 599 293 602 -2 2 -36 20 -75 39 l-71 36 -49 -101 c-27 -55 -52 -102 -56 -104 -6 -4 -142 59 -156 71 -2 2 20 48 47 104 28 55 51 103 51 106 0 5 -135 75 -145 75 -3 0 -71 -133 -151 -296z"/>
<path d="M6004 1370 c-72 -23 -145 -83 -176 -144 -45 -89 -33 -217 33 -348 82 -163 226 -226 381 -168 187 70 240 263 132 479 -83 166 -216 231 -370 181z m155 -176 c70 -58 120 -219 88 -281 -17 -32 -70 -63 -109 -63 -53 0 -115 68 -149 166 -33 92 -22 150 33 184 46 28 99 26 137 -6z"/>
<path d="M3268 958 c-106 -156 -193 -287 -193 -292 0 -9 108 -46 135 -46 8 0 31 25 50 55 21 32 40 53 48 50 7 -2 44 -14 82 -26 l70 -21 0 -68 0 -68 78 -24 77 -24 3 266 c1 146 -1 305 -5 354 l-8 88 -60 19 c-33 10 -65 19 -72 19 -7 0 -99 -127 -205 -282z m188 -115 c-2 -3 -21 0 -40 7 l-35 11 37 56 37 56 3 -62 c2 -35 1 -65 -2 -68z"/>
<path d="M5449 1185 c-64 -21 -141 -92 -169 -157 -62 -142 2 -391 122 -478 78 -57 193 -63 295 -15 54 25 133 90 133 109 0 6 -22 34 -50 61 l-50 49 -32 -31 c-37 -36 -95 -63 -134 -63 -17 0 -39 13 -64 38 -49 49 -74 129 -68 220 4 57 8 68 35 92 40 36 95 45 152 25 24 -8 45 -14 47 -13 1 2 14 34 28 71 l26 68 -38 17 c-50 22 -175 25 -233 7z"/>
<path d="M3860 1128 c0 -2 -20 -149 -44 -327 -25 -179 -43 -328 -40 -332 2 -4 35 -10 74 -14 38 -4 73 -8 77 -9 5 0 15 49 23 109 13 95 18 110 34 110 14 0 29 -27 67 -119 27 -66 51 -121 52 -123 2 -1 44 -8 95 -16 62 -9 92 -10 92 -3 -1 6 -28 72 -60 146 -53 119 -58 136 -43 145 79 49 113 109 113 200 0 77 -29 129 -91 167 -36 23 -71 32 -179 48 -128 19 -170 23 -170 18z m212 -178 c53 -15 71 -36 64 -74 -9 -43 -31 -56 -94 -56 l-54 0 7 63 c10 86 9 85 77 67z"/>
<path d="M4427 1063 c-3 -5 -2 -158 1 -341 l5 -334 216 7 c119 4 217 8 217 9 1 0 -1 35 -3 77 l-5 76 -129 -5 -129 -5 0 55 0 55 46 7 c26 3 69 6 95 6 l49 0 0 75 0 74 -97 3 -98 3 -3 43 -3 42 130 0 131 0 0 80 0 80 -209 0 c-116 0 -212 -3 -214 -7z"/>
</g>
</svg>