<svg width="80" height="85" viewBox="0 0 80 85" fill="none" xmlns="http://www.w3.org/2000/svg">
<path d="M10.4348 0C9.4769 0 8.69565 0.816762 8.69565 1.81818V49.0909C8.69565 50.0994 9.4769 50.9091 10.4348 50.9091H19.1304C20.0951 50.9091 20.8696 50.0994 20.8696 49.0909V1.81818C20.8696 0.816762 20.0951 0 19.1304 0H10.4348ZM26.087 0C25.1291 0 24.3478 0.816762 24.3478 1.81818V49.0909C24.3478 50.0994 25.1291 50.9091 26.087 50.9091H34.7826C35.7473 50.9091 36.5217 50.0994 36.5217 49.0909V1.81818C36.5217 0.816762 35.7473 0 34.7826 0H26.087ZM13.0435 7.27273H16.5217C17.4864 7.27273 18.2609 8.08949 18.2609 9.09091C18.2609 10.0923 17.4864 10.9091 16.5217 10.9091H13.0435C12.0788 10.9091 11.3043 10.0923 11.3043 9.09091C11.3043 8.08949 12.0788 7.27273 13.0435 7.27273ZM28.6957 7.27273H32.1739C33.1386 7.27273 33.913 8.08949 33.913 9.09091C33.913 10.0923 33.1386 10.9091 32.1739 10.9091H28.6957C27.731 10.9091 26.9565 10.0923 26.9565 9.09091C26.9565 8.08949 27.731 7.27273 28.6957 7.27273ZM61.9022 9.88636L53.4783 11.9886C53.0299 12.1023 52.6359 12.3722 52.3913 12.7841C52.2894 12.9545 52.2147 13.1605 52.1739 13.3523V12.7273C52.1739 11.7259 51.3995 10.9091 50.4348 10.9091H41.7391C40.7812 10.9091 40 11.7259 40 12.7273V49.0909C40 50.0994 40.7812 50.9091 41.7391 50.9091H50.4348C51.3995 50.9091 52.1739 50.0994 52.1739 49.0909V14.1477L60.5435 49.5455C60.7337 50.3835 61.4402 50.9659 62.2283 50.9659C62.3573 50.9659 62.4728 50.9375 62.6087 50.9091L71.087 48.8068C71.5353 48.6932 71.9293 48.4233 72.1739 48.0114C72.4185 47.5994 72.5 47.1165 72.3913 46.6477L64.0217 11.25C63.7976 10.2699 62.8329 9.65199 61.9022 9.88636ZM60.8152 17.7841C61.481 17.9048 62.0652 18.4162 62.2283 19.1477C62.4457 20.1278 61.8546 21.1364 60.9239 21.3636L59.2391 21.7614C59.1033 21.7969 58.9878 21.8182 58.8587 21.8182C58.0707 21.8182 57.3098 21.2358 57.1196 20.3977C56.9022 19.4176 57.4932 18.4659 58.4239 18.2386L60.1087 17.8409C60.3397 17.7841 60.591 17.7415 60.8152 17.7841ZM45.2174 18.1818H46.9565C47.9212 18.1818 48.6957 18.9986 48.6957 20C48.6957 21.0014 47.9212 21.8182 46.9565 21.8182H45.2174C44.2527 21.8182 43.4783 21.0014 43.4783 20C43.4783 18.9986 44.2527 18.1818 45.2174 18.1818ZM65.2717 39.0341C66.2024 38.8139 67.1671 39.4176 67.3913 40.3977C67.6087 41.3707 67.0245 42.3295 66.087 42.5568L64.4022 43.0114C64.2663 43.0469 64.0965 43.0682 63.9674 43.0682C63.1793 43.0682 62.4728 42.4858 62.2826 41.6477C62.0652 40.6747 62.6495 39.6591 63.587 39.4318L65.2717 39.0341ZM13.0435 40H16.5217C17.4864 40 18.2609 40.8168 18.2609 41.8182C18.2609 42.8196 17.4864 43.6364 16.5217 43.6364H13.0435C12.0788 43.6364 11.3043 42.8196 11.3043 41.8182C11.3043 40.8168 12.0788 40 13.0435 40ZM28.6957 40H32.1739C33.1386 40 33.913 40.8168 33.913 41.8182C33.913 42.8196 33.1386 43.6364 32.1739 43.6364H28.6957C27.731 43.6364 26.9565 42.8196 26.9565 41.8182C26.9565 40.8168 27.731 40 28.6957 40ZM45.2174 40H46.9565C47.9212 40 48.6957 40.8097 48.6957 41.8182C48.6957 42.8267 47.9212 43.6364 46.9565 43.6364H45.2174C44.2527 43.6364 43.4783 42.8267 43.4783 41.8182C43.4783 40.8097 44.2527 40 45.2174 40ZM1.73913 52.7273C0.78125 52.7273 0 53.5369 0 54.5455V60C0 61.0085 0.78125 61.8182 1.73913 61.8182H78.2609C79.2255 61.8182 80 61.0085 80 60V54.5455C80 53.5369 79.2255 52.7273 78.2609 52.7273H1.73913ZM6.95652 65.4545V75.4545C6.95652 77.9616 8.90625 80 11.3043 80C13.7024 80 15.6522 77.9616 15.6522 75.4545V65.4545H6.95652ZM64.3478 65.4545V75.4545C64.3478 77.9616 66.2976 80 68.6956 80C71.0938 80 73.0435 77.9616 73.0435 75.4545V65.4545H64.3478Z" fill="white"/>
<path d="M19.426 77.446H22.646V79H17.466V69.228H19.426V77.446ZM25.8518 69.228V79H23.8918V69.228H25.8518ZM34.4383 69.228V70.81H31.8343V79H29.8743V70.81H27.2703V69.228H34.4383ZM37.8283 70.81V73.26H41.1183V74.814H37.8283V77.404H41.5383V79H35.8683V69.214H41.5383V70.81H37.8283ZM48.3595 79L46.2035 75.192H45.2795V79H43.3195V69.228H46.9875C47.7435 69.228 48.3875 69.3633 48.9195 69.634C49.4515 69.8953 49.8482 70.2547 50.1095 70.712C50.3802 71.16 50.5155 71.664 50.5155 72.224C50.5155 72.868 50.3288 73.4513 49.9555 73.974C49.5822 74.4873 49.0268 74.842 48.2895 75.038L50.6275 79H48.3595ZM45.2795 73.722H46.9175C47.4495 73.722 47.8462 73.596 48.1075 73.344C48.3688 73.0827 48.4995 72.7233 48.4995 72.266C48.4995 71.818 48.3688 71.4727 48.1075 71.23C47.8462 70.978 47.4495 70.852 46.9175 70.852H45.2795V73.722ZM58.9383 69.228V70.81H56.3343V79H54.3743V70.81H51.7703V69.228H58.9383ZM62.3283 69.228V79H60.3683V69.228H62.3283Z" fill="white"/>
</svg>
